<?xml version="1.0" encoding="utf-8"?>
<!-- Generator: Adobe Illustrator 24.0.1, SVG Export Plug-In . SVG Version: 6.00 Build 0)  -->
<svg version="1.1" id="Camada_2_1_" xmlns="http://www.w3.org/2000/svg" xmlns:xlink="http://www.w3.org/1999/xlink" x="0px"
	 y="0px" viewBox="0 0 1920 1080" style="enable-background:new 0 0 1920 1080;" xml:space="preserve">
<style type="text/css">
	.st0{fill:#CF2D13;}
	.st1{fill:#F6D7C1;}
</style>
<g>
	<g>
		<path class="st0" d="M537.2,225.8v33.4l0.9,73.8l-0.9,77.3c0,0.4,0,1,0,1.8c0.4,27.1,19.6,46.8,24.5,51.8
			c4.5,4.6,14.3,14.5,30.8,21.1c12.1,4.8,22.9,6,29.9,6.1v43v13.2h16.3V491c6.3,0,12.7,0,19,0c0.3,0,0.6,0,0.9,0
			c2.5,0.4,3.5,4.1,3.6,4.4v7v44.8h24.5v-50c-0.1-0.6-0.1-1.2,0-1.8c1.3-6.5,18-7.8,19-7.9c5.3-0.3,13.4-1.2,22.6-4.4
			c4.6-1.6,33.4-11.9,48-41.3c2.6-5.2,5.8-13.2,7.2-23.7v-68.5V253c0-9.6,0-21.7,0-35.1c0-6,0-6,0-6.1c-0.6-19.6-16.3-43-38-56.2
			c-16.3-9.8-32.5-11.9-42.6-12.3c-28.5,0.6-57.2,0.9-86,0.9c-4.9,0-5.4-0.1-7.2,0c-30.5,1.9-50.4,27.5-54.3,32.5
			c-4.4,5.6-10.3,14.6-14.5,27.2l-2.7,12.3l-0.9,4.4L537.2,225.8L537.2,225.8z"/>
	</g>
	<g>
		<path class="st1" d="M720.8,589.3l-26.3-131.6v-75.8l22.2,11.2l4.1,32.7c12.6-12.8,25.2-25.5,37.8-38.3c-0.8-25.5-1.7-51-2.5-76.6
			l32.9,6.4l10.7,71l-5.8,62.2l-38.7,43.1l44.4,95.7H720.8z"/>
	</g>
	<g>
		<path class="st1" d="M600.7,589.3L627,457.7v-75.8c-7.4,3.7-14.8,7.4-22.2,11.2c-1.4,10.9-2.7,21.8-4.1,32.7
			c-12.6-12.8-25.2-25.5-37.8-38.3l2.5-76.6l-32.9,6.4l-10.7,71l5.8,62.2l38.7,43.1l-44.4,95.7H600.7z"/>
	</g>
	<g>
		<path class="st0" d="M607.2,613.5v12.9l-15.8-0.1v102.3h-15.1v-7.2c-7,4.8-14.5,7.2-22.4,7.2h-0.8c-12.2,0-22.5-5.3-30.8-15.8
			c-4.4-6.6-6.6-13.7-6.6-21.1c0-12.1,5.4-22.2,16.2-30.3c6.7-4.3,14-6.5,22-6.5c7.9,0,14.7,2,20.2,6l2.1,1.3v-22.1v-11
			c-0.6-10.3,2.6-15.5,9.8-15.6H607.2z M530.9,691.8c0,7.8,3.7,14.1,11.2,19c3.5,2.1,7.5,3.1,11.9,3.1c7.5,0,13.7-3.4,18.7-10.1
			c2.4-3.8,3.6-7.6,3.6-11.5v-1.1c0-6.9-3.3-12.8-9.9-17.7c-4-2.6-8.3-3.9-13-3.9c-7.4,0-13.6,3.3-18.7,10
			C532.2,683.5,530.9,687.6,530.9,691.8z"/>
		<path class="st0" d="M636.1,655c9.9,0,18.7,3.6,26.5,10.8c7.4,7.6,11,16.3,11,26c0,10.2-4.1,19.3-12.2,27.1
			c-7.5,6.5-16,9.7-25.5,9.7h-0.3c-11.2,0-20.8-4.3-28.8-13c-5.9-7.3-8.9-15.2-8.9-23.7c0-7.4,2.3-14.4,6.8-21.1
			C612.8,660.2,623.3,655,636.1,655z M613.2,690.6v0.9l-0.2,0.2l0.2,0.1v1c0,6,2.9,11.5,8.7,16.5c4.4,3,9.1,4.5,13.9,4.5
			c7.4,0,13.6-3.1,18.5-9.3c2.9-4.2,4.3-8.4,4.3-12.8c0-7.6-3.6-14-10.9-19c-4-2.1-8.1-3.2-12.3-3.2c-7.5,0-13.8,3.4-18.9,10.3
			C614.3,683.7,613.2,687.3,613.2,690.6z"/>
		<path class="st1" d="M717.9,655c8.1,0,15.6,2.4,22.5,7.2h0.2V655h15.1v73.6h-15.1v-7.2c-7,4.8-14.2,7.2-21.5,7.2h-2
			c-11.3,0-21.1-4.8-29.4-14.5c-5.1-7-7.6-14.4-7.6-22.3c0-12.2,5.4-22.3,16.2-30.3C703,657.2,710.2,655,717.9,655z M695.1,691.7
			c0,8.2,4,14.8,12.1,19.6c3.4,1.7,6.9,2.6,10.4,2.6h1c6.8,0,12.8-3.1,17.9-9.3c2.8-4.1,4.1-8.1,4.1-12.1v-1
			c0-7.7-3.7-13.9-11.2-18.8c-3.8-2.1-7.7-3.1-11.6-3.1c-7.2,0-13.4,3.1-18.3,9.3C696.6,683.1,695.1,687.3,695.1,691.7z"/>
		<path class="st1" d="M777.2,663.3h0.2c8-5.6,18-8.4,30-8.4v14.7c-14.6,0-24,4.9-28.4,14.8c-1.2,2.9-1.8,5.6-1.8,8.1v36.1h-15.1
			v-36.8C763,679.8,768,670.3,777.2,663.3z"/>
	</g>
</g>
</svg>
